<svg width="126" height="29" viewBox="0 0 126 29" fill="none" xmlns="http://www.w3.org/2000/svg">
<path d="M0 0H7.5C15.5081 0 22 6.49187 22 14.5C22 22.5081 15.5081 29 7.5 29H0V0Z" fill="black"/>
<path d="M26 0H33.5C41.5081 0 48 6.49187 48 14.5C48 22.5081 41.5081 29 33.5 29H26V0Z" fill="#F45F5F"/>
<rect x="52" y="1" width="8" height="16" fill="black"/>
<rect x="66" y="1" width="8" height="16" fill="black"/>
<rect x="69" y="12" width="5" height="16" transform="rotate(90 69 12)" fill="black"/>
<rect x="67" y="29" width="8" height="16" transform="rotate(180 67 29)" fill="black"/>
<rect x="100" y="1" width="5" height="22" transform="rotate(90 100 1)" fill="black"/>
<rect x="100" y="12" width="5" height="10" transform="rotate(90 100 12)" fill="black"/>
<rect x="100" y="24" width="5" height="22" transform="rotate(90 100 24)" fill="black"/>
<rect x="100" y="25" width="10" height="8" transform="rotate(180 100 25)" fill="black"/>
<rect x="86" y="25" width="8" height="8" transform="rotate(180 86 25)" fill="black"/>
<rect x="100" y="13" width="10" height="8" transform="rotate(180 100 13)" fill="black"/>
<path d="M104 0H111.5C119.508 0 126 6.49187 126 14.5C126 22.5081 119.508 29 111.5 29H104V0Z" fill="#F45F5F"/>
</svg>
