<svg width="186" height="201" viewBox="0 0 186 201" fill="none" xmlns="http://www.w3.org/2000/svg">
<path d="M46.28 78.7845C46.1771 79.4363 46.1153 80.8635 46.6917 81.3575C47.4121 81.9751 49.0589 80.74 49.0589 79.2991C49.0589 77.8582 46.4858 77.5494 46.28 78.6816M44.7361 109.558C43.8785 109.558 42.1631 109.929 42.1631 111.411C42.3346 111.994 43.1306 112.975 44.942 112.234C47.2063 111.308 45.5595 109.465 44.7361 109.558ZM48.5443 106.676C47.961 106.951 46.9593 107.767 47.618 108.838C48.4414 110.176 49.4706 110.176 50.0881 109.558C50.7056 108.941 49.4706 106.265 48.5443 106.676ZM48.4414 127.467C47.961 127.878 47.1445 128.928 47.7209 129.834C48.4414 130.966 50.4998 130.554 50.6027 129.011C50.7056 127.467 49.1618 126.849 48.4414 127.467ZM44.1186 129.937C43.5354 130.006 42.3895 130.472 42.4718 131.79C42.5748 133.436 43.604 133.436 44.5303 133.23C45.2713 133.066 45.6624 132.133 45.7654 131.687C45.6968 131.103 45.2713 129.937 44.1186 129.937ZM50.9115 133.23C50.4655 133.265 49.5735 133.601 49.5735 134.671C49.5735 136.009 50.6027 136.936 51.0144 136.936C51.4261 136.936 52.4553 136.318 52.4553 135.083C52.4553 133.848 51.6319 133.128 50.9115 133.23ZM40.4134 95.355C40.036 95.2864 39.2812 95.4167 39.2812 96.4871C39.2812 97.8251 40.4134 98.6485 40.928 98.6485C41.4426 98.6485 42.0602 97.5164 42.0602 96.7959C42.0602 96.0755 41.2368 95.4579 40.4134 95.355ZM44.3245 91.0323C43.8098 91.0666 42.7806 91.3616 42.7806 92.2673C42.7806 93.3995 43.2952 93.9141 44.4274 93.9141C45.5595 93.9141 45.7654 93.0907 45.7654 92.4732C45.7654 91.8556 45.4566 91.0323 44.3245 91.0323ZM96.4032 164.107C95.8886 164.039 94.8594 164.21 94.8594 165.445C94.8594 166.989 95.7857 166.68 96.4032 166.474C97.0208 166.269 98.05 166.166 97.9471 165.136C97.8441 164.107 96.9178 164.091 96.4032 164.107Z" stroke="#096DBC" stroke-width="0.909353" stroke-linecap="round"/>
<path d="M40.927 75.1823C40.1379 76.383 39.1155 79.0727 41.3387 80.2255C44.1176 81.6664 43.3971 74.7706 40.927 75.1823Z" fill="#096DBC"/>
<path d="M40.0007 84.3424C40.0007 82.4486 41.1671 81.9065 41.7504 81.8722C45.0439 83.9307 43.2599 85.6804 41.9562 86.2979C41.3044 86.4351 40.0007 86.2361 40.0007 84.3424Z" fill="#096DBC"/>
<path d="M46.6907 87.3271C46.3613 86.092 47.9257 85.0971 48.7491 84.7541C50.7252 84.5894 51.0134 86.2636 50.9105 87.1213C50.7389 87.9103 50.1489 89.4885 49.1608 89.4885C47.9257 89.4885 47.1023 88.871 46.6907 87.3271Z" fill="#096DBC"/>
<path d="M45.0439 99.0603C44.9616 98.1546 46.6563 97.3792 47.514 97.1048C49.4696 97.1048 49.1608 100.398 47.514 100.501C45.8673 100.604 45.1468 100.192 45.0439 99.0603Z" fill="#096DBC"/>
<path d="M49.3666 92.8849C49.3666 91.7322 50.3959 91.3754 50.9105 91.3411C51.4937 91.3411 52.6396 91.6499 52.5572 92.8849C52.4749 94.12 51.4251 94.4288 50.9105 94.4288C50.3959 94.3945 49.3666 94.0377 49.3666 92.8849Z" fill="#096DBC"/>
<path d="M53.1748 86.7096C53.1748 85.3922 53.8609 84.857 54.204 84.7541C56.6741 84.2394 55.3361 87.8417 54.9245 87.8417C54.5128 87.8417 53.1748 88.3563 53.1748 86.7096Z" fill="#096DBC"/>
<path d="M52.866 81.2547C52.7837 79.6079 53.7237 78.9218 54.204 78.7846C57.4975 79.2992 56.2624 82.7985 55.9537 82.9015C55.6449 83.0044 52.9689 83.3131 52.866 81.2547Z" fill="#096DBC"/>
<path d="M55.4391 76.0056C55.3567 74.4412 56.5026 73.7757 57.0858 73.6384C57.8749 73.6384 59.453 74.0295 59.453 75.594C59.453 77.1584 58.4924 77.6867 58.0121 77.7553C57.1887 77.8239 55.5214 77.5701 55.4391 76.0056Z" fill="#096DBC"/>
<path d="M40.8241 105.236C40.7417 103.589 41.9562 103.04 42.5738 102.971C43.603 102.765 44.8381 103.589 44.7351 105.03C44.6322 106.471 43.603 107.088 43.1913 107.088C42.7796 107.088 40.927 107.294 40.8241 105.236Z" fill="#096DBC"/>
<path d="M41.2358 118.513C41.2358 117.442 42.1278 117.106 42.5738 117.072C45.5585 117.586 43.7059 120.056 42.9854 120.056C42.265 120.056 41.2358 119.851 41.2358 118.513Z" fill="#096DBC"/>
<path d="M43.5001 124.688C43.5001 123.288 44.7351 122.87 45.3527 122.835C48.4403 123.041 46.7936 126.232 45.9702 126.438C45.1468 126.644 43.5001 126.438 43.5001 124.688Z" fill="#096DBC"/>
<path d="M38.7656 122.938C38.7656 121.868 39.9321 121.257 40.5153 121.086C43.2942 121.292 41.8533 124.276 41.0299 124.276C40.2065 124.276 38.7656 124.276 38.7656 122.938Z" fill="#096DBC"/>
<path d="M47.8228 118.513C47.9051 116.948 48.6805 116.9 49.0579 117.072C49.6068 116.969 50.787 117.072 51.1163 118.307C51.4457 119.542 50.5674 119.988 50.0871 120.056C49.298 120.194 47.7405 120.077 47.8228 118.513Z" fill="#096DBC"/>
<path d="M87.8596 164.519C87.7773 163.202 88.9918 162.735 89.6093 162.666C91.0914 162.584 91.3247 163.867 91.2561 164.519C91.0502 165.274 90.4327 166.783 89.6093 166.783C88.5801 166.783 87.9626 166.166 87.8596 164.519Z" fill="#096DBC"/>
<path d="M100.931 165.857C100.931 164.704 101.96 164.416 102.475 164.416C103.627 164.416 103.984 165.514 104.018 166.063C104.087 166.475 103.957 167.36 102.886 167.607C101.548 167.915 100.931 167.298 100.931 165.857Z" fill="#096DBC"/>
<path d="M104.945 170.591C105.274 169.603 105.974 169.219 106.283 169.15C107.621 168.636 108.238 171.415 106.9 172.135C105.562 172.856 104.533 171.826 104.945 170.591Z" fill="#096DBC"/>
<path d="M105.871 166.372C105.871 165.548 106.832 165.548 107.312 165.651C108.341 165.857 109.37 168.018 107.724 168.018C106.077 168.018 105.871 167.401 105.871 166.372Z" fill="#096DBC"/>
<path d="M66.3488 73.7412C61.6143 80.294 52.1866 96.4459 52.3513 108.632C52.5029 119.849 58.2911 139.883 58.3326 155.256M56.4684 189.117C48.2346 187.779 49.6754 185.412 48.1316 182.942C48.0517 182.814 47.9834 182.675 47.9258 182.527M56.4684 189.117C56.6742 186.064 58.321 179.998 63.2613 180.163M56.4684 189.117C64.4527 190.415 77.8567 190.067 80.257 174.091M89.6094 112.337C81.6647 127.31 81.4311 143.587 81.1232 158.138M47.7225 181.707C47.4121 179.447 48.6006 175.999 49.3666 174.296C49.8607 171.25 53.758 169.734 55.6449 169.356C55.9603 168.769 56.2437 168.15 56.4974 167.504M47.7225 181.707C49.7801 179.443 54.6981 175.182 57.9093 176.252M47.7225 181.707C47.7632 182.003 47.8295 182.278 47.9258 182.527M47.9258 182.527C46.1438 182.118 43.6789 180.895 43.9624 178.722M46.0732 175.429C44.6988 176.705 44.0828 177.799 43.9624 178.722M43.9624 178.722C43.1262 177.341 42.5059 174.633 44.9412 172.677M47.9258 171.209C46.6234 171.6 45.6521 172.106 44.9412 172.677M44.9412 172.677V168.533M56.4974 167.504C51.2044 167.332 40.0009 167.833 37.5307 171.209C34.4431 175.429 -4.04995 178.208 0.890328 148.978C2.33125 144.38 7.51855 135.124 16.7404 134.877C28.2677 134.568 29.3999 144.346 28.3706 148.154C27.3414 151.962 12.7264 145.478 13.9615 154.432C14.9496 161.596 23.9793 161.054 28.3706 159.887C35.7811 157.211 44.9207 152.456 58.3326 155.256M56.4974 167.504C57.8369 164.089 58.3451 159.883 58.3326 155.256M80.257 174.091C80.332 173.591 80.3963 173.077 80.4493 172.547C80.9003 168.037 81.0163 163.191 81.1232 158.138M80.257 174.091C87.1827 175.36 101.446 178.331 103.092 180.06C104.65 181.695 116.161 184.449 130.676 185.426M145.394 185.721C140.331 185.871 135.348 185.741 130.676 185.426M81.1232 158.138C88.0038 158.039 103.532 158.729 110.081 164.622M144.879 180.678C126.456 179.134 115.649 170.591 110.812 165.342C110.583 165.094 110.339 164.854 110.081 164.622M110.081 164.622C106.551 159.887 101.981 147.331 111.944 134.98C124.397 119.542 144.056 136.936 140.453 143.626M72.7302 67.0513C75.6121 69.144 83.2695 73.2678 90.8446 73.0208C100.313 72.712 112.767 82.5926 121.207 96.4871C123.945 100.996 127.865 105.537 132.499 109.97M167.625 189.014C174.212 189.838 179.873 189.117 183.269 179.031C185.377 172.769 185.027 161.312 180.346 151.036M132.499 109.97C142.144 119.198 154.882 127.958 166.493 134.98C173.011 138.922 177.486 144.759 180.346 151.036M132.499 109.97C133.469 106.539 137.468 100.954 145.702 106.059C155.995 112.44 155.274 115.734 164.228 121.394C173.183 127.055 187.406 138.582 180.346 151.036M130.676 185.426C129.488 187.962 128.243 192.955 132.322 193.408M132.837 193.44C132.767 193.439 132.698 193.436 132.631 193.433M132.322 193.408C132.422 193.419 132.525 193.427 132.631 193.433M132.322 193.408C132.26 194.783 132.933 197.165 135.925 196.756M136.954 196.528C136.813 196.57 136.675 196.607 136.542 196.639M132.631 193.433C133.66 192.372 136.192 190.188 138.086 189.941M135.925 196.756C136.165 195.548 137.448 192.802 140.659 191.485M135.925 196.756C136.12 196.729 136.326 196.69 136.542 196.639M136.542 196.639C137.16 198.008 139.959 200.686 146.217 200.439C154.039 200.13 161.141 200.13 161.346 193.131M161.346 193.131C168.757 191.073 168.036 186.956 172.256 178.928C175.632 172.506 170.164 170.969 167.007 171.003M161.346 193.131C160.626 193.131 152.392 194.058 151.878 192.205C151.659 191.419 151.07 190.633 150.409 189.941M151.466 177.075C149.064 177.418 144.323 179.01 144.57 182.633C144.642 183.683 144.83 184.495 145.085 185.131M145.085 185.131C146.114 183.544 148.913 180.431 151.878 180.678M145.085 185.131C145.651 186.541 146.548 187.083 147.246 187.43M147.246 187.43C147.591 187.602 147.887 187.725 148.069 187.882C148.484 188.238 149.513 189.002 150.409 189.941M147.246 187.43C148.584 185.831 151.548 182.798 152.701 183.457M150.409 189.941C151.448 188.239 154.307 185.094 157.435 186.133" stroke="#F1A945" stroke-width="0.909353" stroke-linecap="round"/>
<path d="M55.0306 65.3017C55.0011 65.6264 54.9871 66.0191 55.0023 66.4338M59.4563 66.4338H55.0023M59.4563 66.4338C60.314 66.1937 62.0706 65.8574 62.2352 66.4338M59.4563 66.4338C59.4354 67.0415 59.225 68.0356 58.633 68.755M55.0023 66.4338C55.0574 67.947 55.4998 69.7537 56.9861 69.6244C57.7233 69.5603 58.2556 69.2134 58.633 68.755M62.2352 66.4338C62.3426 66.8094 62.31 67.6606 62.1084 68.3893M62.2352 66.4338C64.0878 64.787 66.2492 65.3017 66.3521 65.7133C66.3896 65.8631 66.3045 66.2308 66.1463 66.6479M58.633 68.755C59.1133 69.0448 60.2797 69.6244 61.1031 69.6244C61.5957 69.6244 61.9233 69.0584 62.1084 68.3893M62.1084 68.3893C62.8025 68.4579 64.3349 68.554 64.9112 68.3893C65.3696 68.2584 65.8697 67.3774 66.1463 66.6479M66.1463 66.6479C67.0726 66.8853 68.9252 67.566 68.9252 68.3893C68.9252 69.2127 69.0624 65.6447 69.131 63.7578" stroke="#096DBC" stroke-width="0.909353" stroke-linecap="round"/>
<path d="M56.6758 63.3461C58.0824 63.2432 61.2867 63.0991 62.8511 63.3461" stroke="#D35515" stroke-width="0.909353" stroke-linecap="round"/>
<path d="M46.908 67.5661C46.9626 66.2202 46.8109 64.3123 46.6921 63.2433L49.6769 64.8901C49.7173 65.962 49.6958 67.7445 49.4689 69.2128L46.908 67.5661Z" fill="#096DBC"/>
<path d="M43.9132 61.4937C44.0848 63.0718 44.1602 66.3104 43.0898 66.6398M46.6921 68.9041C46.8188 68.6508 46.8837 68.1639 46.908 67.5661M48.6477 71.4771C49.0532 71.1053 49.3108 70.2353 49.4689 69.2128M46.908 67.5661C46.9626 66.2202 46.8109 64.3123 46.6921 63.2433L49.6769 64.8901C49.7173 65.962 49.6958 67.7445 49.4689 69.2128M46.908 67.5661L49.4689 69.2128M51.7353 65.3018C51.7353 66.8113 52.0853 70.0156 53.485 70.7567" stroke="#096DBC" stroke-width="0.909353" stroke-linecap="round"/>
<path d="M63.8789 13.5318C65.3541 12.9143 68.4487 12.7496 69.025 17.0312" stroke="#D35515" stroke-width="0.909353" stroke-linecap="round"/>
<path d="M32.4883 48.0107C36.3307 53.843 45.5183 65.1782 51.9406 65.0959" stroke="#E68F00" stroke-width="0.909353" stroke-linecap="round"/>
<path d="M77.1701 38.2332C76.3467 36.5178 75.8733 33.0253 80.5665 32.7783C81.5615 34.4936 82.275 37.9861 77.1701 38.2332Z" fill="#D35515"/>
<path d="M68.3224 50.7896C67.4991 49.0742 67.0256 45.5817 71.7189 45.3347C72.7138 47.05 73.4274 50.5425 68.3224 50.7896Z" fill="#D35515"/>
<path d="M49.7951 51.3042C48.9717 53.0196 48.4983 56.5121 53.1915 56.7591C54.1865 55.0437 54.9 51.5512 49.7951 51.3042Z" fill="#D35515"/>
<path d="M37.2404 41.2178C36.417 42.9331 35.9436 46.4257 40.6369 46.6727C41.6318 44.9573 42.3454 41.4648 37.2404 41.2178Z" fill="#D35515"/>
<path d="M41.238 53.7745C36.9564 51.0573 37.6014 45.5064 38.4591 43.0705C39.7627 42.0413 43.5846 40.7033 48.4425 43.5851C53.3004 46.467 53.6229 52.5394 53.1769 55.2154C50.9813 55.8672 45.5196 56.4916 41.238 53.7745Z" fill="#E68F00"/>
<path d="M68.6153 50.1721C74.4819 49.2457 87.9647 40.6003 78.7017 35.1455C66.4625 27.938 68.6153 48.8341 68.6153 50.1721Z" fill="#E68F00"/>
<path d="M44.6323 38.0273C44.5637 38.5762 44.694 39.6329 45.7644 39.4682C47.1024 39.2623 46.0732 38.0273 44.6323 38.0273Z" fill="#2562AA"/>
<path d="M49.3667 38.0273C49.5725 38.6791 50.1283 40.024 50.7047 40.1886C51.4251 40.3945 51.3222 38.0273 49.3667 38.0273Z" fill="#2562AA"/>
<path d="M50.1901 43.2763C49.7784 43.1116 50.3616 42.4529 50.7047 42.1442C51.2193 42.1442 51.4251 43.2763 51.2193 43.4822C51.0135 43.688 50.7047 43.4822 50.1901 43.2763Z" fill="#2562AA"/>
<path d="M55.2333 41.3208C55.2333 40.9914 55.5077 40.566 55.645 40.3945C57.1271 41.1355 56.3997 41.7325 55.8508 41.9383C55.645 41.8697 55.2333 41.6501 55.2333 41.3208Z" fill="#2562AA"/>
<path d="M55.2333 45.4377C55.2333 45.026 55.645 44.6486 55.8508 44.5114C57.7034 45.7465 56.2625 46.4669 56.0567 46.4669C55.8508 46.4669 55.2333 45.9523 55.2333 45.4377Z" fill="#2562AA"/>
<path d="M58.321 52.1276C58.1563 51.8806 58.7326 51.4072 59.0414 51.2013C60.0706 51.0984 59.6589 53.1569 59.4531 53.1569C59.2473 53.1569 58.5268 52.4364 58.321 52.1276Z" fill="#2562AA"/>
<path d="M61.5116 52.2306C61.5116 51.8189 61.9232 51.7846 62.1291 51.8189C63.57 52.5393 62.6437 53.6715 62.4379 53.6715C62.232 53.6715 61.5116 52.7452 61.5116 52.2306Z" fill="#2562AA"/>
<path d="M59.8648 47.702C59.8648 47.0433 60.2079 46.6041 60.3794 46.4669C62.2732 47.455 61.1685 48.7312 60.3794 49.2458C60.2079 49.0057 59.8648 48.3607 59.8648 47.702Z" fill="#2562AA"/>
<path d="M59.8648 39.8799C59.4188 40.4288 58.7944 41.9795 59.8648 43.7909C60.6882 43.242 61.8409 41.6913 59.8648 39.8799Z" fill="#2562AA"/>
<path d="M62.6437 41.9383C62.6437 41.0326 63.1926 40.5317 63.4671 40.3945C64.8668 41.3825 64.0503 42.5902 63.4671 43.0705C63.1926 43.0705 62.6437 42.844 62.6437 41.9383Z" fill="#2562AA"/>
<path d="M63.4671 35.5571C63.1926 35.9002 62.726 36.7716 63.0554 37.5127C63.4671 38.439 64.4963 36.3805 63.4671 35.5571Z" fill="#2562AA"/>
<path d="M65.1138 37.8214C65.2785 36.504 66.2117 36.1747 66.6577 36.1747C68.0574 37.9038 66.4175 39.228 65.4226 39.674C65.2511 39.6054 64.9492 39.1388 65.1138 37.8214Z" fill="#2562AA"/>
<path d="M62.6437 48.1137C62.6437 47.5373 63.1926 47.3932 63.4671 47.3932C63.9817 47.4961 64.1875 49.2458 63.6729 49.4517C63.1583 49.6575 62.6437 48.8341 62.6437 48.1137Z" fill="#2562AA"/>
<path d="M46.4849 58.2001C46.7936 58.749 47.617 59.8468 48.4404 59.8468C49.4696 59.8468 48.4404 57.7884 46.4849 58.2001Z" fill="#2562AA"/>
<path d="M48.4404 61.2877C48.2689 61.6308 48.1316 62.4199 48.955 62.8316C49.9842 63.3462 50.8076 62.1111 48.4404 61.2877Z" fill="#2562AA"/>
<path d="M51.2193 61.3907C51.185 62.0082 51.4251 63.2639 52.6602 63.3462C54.2041 63.4491 53.0719 60.7731 51.2193 61.3907Z" fill="#2562AA"/>
<path d="M65.9372 57.1708C66.1842 56.2651 67.2752 55.9015 67.7898 55.8329C68.6955 55.9975 68.03 57.1365 67.584 57.6855C66.9321 57.8913 65.6902 58.0766 65.9372 57.1708Z" fill="#2562AA"/>
<path d="M66.6577 59.5381C66.74 59.044 67.4467 58.7147 67.7898 58.6118C69.6836 58.7764 68.6475 59.7782 67.8927 60.2585C67.4467 60.2242 66.5753 60.0321 66.6577 59.5381Z" fill="#2562AA"/>
<path d="M70.6716 54.1861C70.1913 54.3919 69.2925 54.9683 69.5395 55.627C69.8483 56.4504 72.9359 54.8036 70.6716 54.1861Z" fill="#2562AA"/>
<path d="M70.9804 59.0235C70.3972 59.195 69.2513 59.394 69.3337 58.8176C69.4077 58.2996 69.9307 57.8536 70.26 57.6441C70.4315 57.4863 70.8775 57.212 71.2892 57.3767C71.7009 57.5414 71.2549 58.5431 70.9804 59.0235Z" fill="#2562AA"/>
<circle cx="75.2026" cy="39.7769" r="1.89559" fill="#096DBC" stroke="white" stroke-width="0.909353"/>
<circle cx="48.0308" cy="49.8633" r="1.89559" fill="#096DBC" stroke="white" stroke-width="0.909353"/>
<path d="M43.1929 59.9496C42.987 59.8661 45.2289 65.6309 47.2052 65.7132C49.6756 65.8162 50.2952 62.8315 43.1929 59.9496Z" fill="#D35515"/>
<path d="M25.9006 42.9675C25.0772 44.6829 24.6037 48.1754 29.297 48.4224C30.2919 46.707 31.0055 43.2145 25.9006 42.9675Z" fill="#D35515"/>
<path d="M51.0152 25.5738C50.6035 24.3387 51.5984 23.481 52.1473 23.2065C55.5437 23.927 53.8971 26.7059 53.3825 26.7059C52.8679 26.7059 51.5298 27.1176 51.0152 25.5738Z" stroke="#096DBC" stroke-width="0.909353" stroke-linecap="round"/>
<path d="M55.2362 34.7337C54.8245 33.581 55.545 33.0183 55.9567 32.8811C58.4267 34.1162 57.3977 35.66 57.1918 35.8659C56.986 36.0717 55.7508 36.1746 55.2362 34.7337Z" stroke="#096DBC" stroke-width="0.909353" stroke-linecap="round"/>
<path d="M49.2641 16.8252C48.9348 15.0961 50.0189 14.6638 50.6021 14.6638C53.2369 15.8166 52.0431 17.7515 51.1168 18.5749C50.6365 18.7121 49.5935 18.5543 49.2641 16.8252Z" stroke="#096DBC" stroke-width="0.909353" stroke-linecap="round"/>
<path d="M31.0469 49.9663C29.7089 52.6423 27.2181 58.056 27.9592 58.303C28.7002 58.55 32.5906 56.2789 34.4432 55.1124" stroke="#096DBC" stroke-width="0.909353" stroke-linecap="round"/>
<path d="M12.418 10.0323C12.418 7.25336 16.2261 4.06283 18.9021 8.7972" stroke="#D35515" stroke-width="0.909353" stroke-linecap="round"/>
<path d="M24.665 7.25357C24.5531 7.05883 24.4269 6.85194 24.2874 6.63605M10.0501 21.1481C9.22667 14.8698 8.81498 1.98394 13.7553 0.666534C18.345 -0.557399 22.461 3.80936 24.2874 6.63605M24.2874 6.63605C27.1179 5.14754 37.6634 4.35289 56.9827 12.8574M57.8061 13.2231C57.5299 13.0993 57.2554 12.9774 56.9827 12.8574M56.9827 12.8574C62.0945 8.69084 72.4416 4.74228 72.9357 22.2803C74.0335 23.3781 76.4144 26.4795 77.1555 30.1024M76.2292 50.481C75.7146 53.2256 73.5738 59.7235 69.1275 63.758" stroke="#F1A945" stroke-width="0.909353" stroke-linecap="round"/>
<path d="M18.3868 11.885C10.6676 11.8851 -1.57999 33.2929 16.431 56.7592" stroke="#F1A945" stroke-width="0.909353" stroke-linecap="round"/>
<path d="M12.42 50.7896C9.33247 73.9471 16.4134 126.664 40.2091 138.685" stroke="#F1A945" stroke-width="0.909353" stroke-linecap="round"/>
<path d="M54.8219 50.0692C55.3708 52.5393 56.5098 57.809 56.6745 59.1264C56.8803 60.7731 59.6592 61.2877 60.7914 61.1848C61.9235 61.0819 64.0849 60.979 65.0112 57.7884C65.8225 54.9939 66.318 47.9359 67.3275 44.8435C66.0911 47.7584 64.1189 53.1553 63.4674 57.7884H58.0125C57.7037 55.0438 54.616 49.1429 54.8219 50.0692Z" fill="#096DBC"/>
<path d="M10.3594 33.1899C10.9083 29.965 14.0234 23.7211 22.0925 24.5444M13.3441 44.5114C13.6529 42.4873 14.7439 38.2743 16.6376 37.6156M19.9312 48.1137C19.8969 44.1683 21.3927 36.5452 27.6504 37.6156M26.827 28.3526C29.3314 24.8532 36.584 19.0278 45.5589 23.7211M28.165 15.0756C31.3899 13.0857 39.4864 10.3 46.0735 15.0756M35.2666 36.0717C37.4966 34.0819 44.0768 30.9462 52.5576 34.3221M60.3797 33.087C62.3352 30.8913 67.5019 26.8705 72.5246 28.3526M56.5716 24.5444C57.7723 22.1429 61.7589 17.7927 68.0989 19.6041M56.5716 17.4428C58.1497 16.6194 61.6971 15.3432 63.2615 16.8252M67.3275 44.8435C66.318 47.9359 65.8225 54.9939 65.0112 57.7884C64.0849 60.979 61.9235 61.0819 60.7914 61.1848C59.6592 61.2877 56.8803 60.7731 56.6745 59.1264C56.5098 57.809 55.3708 52.5393 54.8219 50.0692C54.616 49.1429 57.7037 55.0438 58.0125 57.7884H63.4674C64.1189 53.1553 66.0911 47.7584 67.3275 44.8435ZM67.3275 44.8435C67.4974 44.443 67.6534 44.0893 67.7901 43.7909C67.9788 43.3792 67.4706 44.4051 67.3275 44.8435Z" stroke="#096DBC" stroke-width="0.909353" stroke-linecap="round"/>
<path d="M39.2812 61.1848C39.7959 64.3068 41.8955 70.7566 46.1771 71.58" stroke="#096DBC" stroke-width="0.909353" stroke-linecap="round"/>
<path d="M11.8028 157.52C11.6655 158.721 11.5352 161.164 12.1115 161.328C12.832 161.534 13.0378 155.873 11.8028 157.52Z" fill="#096DBC"/>
<path d="M21.1687 165.342C21.1687 164.107 22.1293 163.593 22.6096 163.49C23.6388 163.49 24.6681 163.798 24.6681 165.342C24.6681 166.577 23.433 167.023 22.8155 167.092C22.2665 167.023 21.1687 166.577 21.1687 165.342Z" fill="#096DBC"/>
<path d="M38.7684 160.711C38.4391 159.723 39.6604 159.201 40.3123 159.064C44.0175 159.064 41.2386 162.769 40.724 162.769C40.2094 162.769 39.1801 161.946 38.7684 160.711Z" fill="#096DBC"/>
<path d="M49.3695 159.784C49.3695 158.714 50.3301 158.309 50.8104 158.241C51.4279 158.241 52.663 158.549 52.663 159.784C52.663 161.328 51.5308 161.637 50.8104 161.534C50.0899 161.431 49.3695 161.122 49.3695 159.784Z" fill="#096DBC"/>
<path d="M14.8904 65.4045C15.8167 66.4681 18.1839 68.7804 19.8307 68.6981C22.6096 68.5591 33.1077 76.5202 33.2106 82.1809M15.405 77.1377C18.6643 76.6917 26.85 79.2373 33.5194 92.9878M17.5664 87.6358C20.1052 88.5278 26.356 92.5967 31.0493 101.736M20.5512 99.1631C23.433 100.707 30.0612 105.647 33.5194 113.058M25.0798 114.293C27.2754 115.288 31.9138 118.286 32.9019 122.321M23.0213 138.582C22.6782 139.474 22.0127 141.752 22.095 143.729M14.4787 138.582C15.5423 138.823 17.6487 140.126 17.5664 143.42M7.37708 142.905C8.818 142.699 11.8439 142.946 12.4203 145.581M3.67188 152.58L8.20046 150.521M5.00987 159.682L8.20046 155.873M16.3313 162.46C15.0963 163.318 12.7085 165.816 13.0378 168.945M28.9908 165.342C28.0302 166.166 26.109 168.903 26.109 173.267M35.9895 162.46C35.5435 163.764 34.7339 166.989 35.0632 169.459M46.8993 159.784C46.2475 161.054 45.0055 163.943 45.2526 165.342M50.1928 146.405V152.065M42.7824 139.715C45.2183 141.67 51.3662 144.449 54.001 144.449M71.8066 71.477C71.8409 76.8289 71.786 87.924 71.2919 89.4884C70.7979 91.0528 74.3796 96.7273 76.2322 99.369M80.7608 75.0793C80.7265 79.5735 81.6254 89.5707 85.4953 93.6053C87.6671 95.8696 89.4406 102.56 88.9946 104.515M93.1115 76.726C93.3174 82.3524 95.7615 93.4317 98.2576 97.5164C99.3898 99.369 98.5321 110.759 96.405 115.425M107.624 83.2101C108.55 85.7489 109.847 92.7202 107.624 100.295C105.4 107.87 106.08 116.42 106.697 119.748M86.7303 168.224C86.3186 168.979 85.4953 170.818 85.4953 172.135M92.8027 169.15C92.5969 170.008 92.1852 172.156 92.1852 173.885M100.213 169.665C99.3555 170.523 97.6607 172.876 97.743 175.429M108.756 173.576L106.389 178.208M115.652 176.561L116.166 181.501M124.915 179.031V182.222M119.666 169.665C122.753 169.631 129.855 168.368 133.56 163.593M133.56 174.605C136.716 172.924 143.132 168.204 143.544 162.769C143.715 160.505 146.185 157.28 147.249 157.932M144.161 175.943C146.528 172.41 151.942 164.828 154.659 162.769M60.4851 165.342C63.0238 167.298 68.4719 172.053 69.954 175.429M61.3085 155.668C62.8523 157.726 64.8515 158.59 67.8955 164.21C69.2335 166.68 71.8752 169.837 73.0416 169.562M60.0734 147.434C63.4012 149.355 70.7362 154.618 73.4533 160.299M59.8676 137.553C61.8574 137.725 66.4546 139.2 68.9247 143.729C71.3949 148.257 74.4139 148.566 75.6147 148.154M57.8091 127.055C60.4851 127.741 66.6604 130.349 69.954 135.289C72.1496 138.582 75.5118 140.161 76.2322 139.509M56.574 115.425C59.6617 116.557 67.6691 120.983 74.9972 129.628M55.9565 100.295C57.0886 102.8 60.0734 107.397 66.4546 110.073C69.0918 111.179 72.3898 116.111 71.8066 117.998M60.7939 87.6358C60.4851 90.9293 61.9235 97.2728 68.616 100.295C71.8066 101.736 75.1001 107.054 73.9679 109.044M100.728 117.175C100.728 119.851 100.007 126.211 97.1255 130.246C94.2437 134.28 94.4838 135.701 94.9641 135.906M90.5385 125.82C89.8866 128.256 88.5829 133.683 88.5829 135.906M107.624 122.527C107.418 124.757 106.78 129.711 105.874 131.687C104.742 134.157 101.139 134.26 101.242 137.553M111.329 127.055C110.917 129.079 109.25 133.766 105.874 136.318M84.8777 145.478C87.8282 145.821 94.2642 146.302 96.405 145.478C98.5458 144.655 100.179 146.096 100.728 146.919M112.667 138.479C109.716 145.856 109.435 160.34 131.913 159.27M129.134 133.848C125.017 141.704 121.477 156.635 140.25 153.506M147.249 148.669C147.901 146.953 150.336 143.214 154.865 141.979C159.394 140.744 161.624 138.445 162.173 137.45M156.615 154.844C157.987 152.923 161.946 149.122 166.804 149.286C171.662 149.451 172.396 147.983 172.156 147.228M165.672 163.593C166.838 161.637 171.25 157.808 179.566 158.138M172.156 168.739C174.489 167.504 179.649 165.301 181.625 166.371M154.659 175.223V178.208M158.159 171.518C157.987 173.13 157.891 176.54 158.879 177.281M163.51 170.283V175.943M175.758 173.782C176.685 174.056 178.64 174.873 179.052 175.943M174.317 182.222L176.067 184.589M174.214 140.332C174.317 138.685 174.75 135.33 175.655 135.083M165.672 131.584C165.912 130.211 166.681 127.343 167.833 126.849M156.615 125.203C156.821 123.865 157.582 120.962 158.982 120.056M147.66 119.645C147.729 118.204 148.36 114.91 150.336 113.263M113.593 119.027C113.765 115.905 114.663 108.879 116.887 105.75C119.11 102.621 118.842 98.9573 118.43 97.5164M118.739 125.511C118.774 123.419 116.21 122.527 123.988 115.425C126.355 113.263 127.282 108.117 126.355 106.368M128.105 123.967C130.026 121.806 133.889 117.277 133.972 116.454M135.001 126.54C136.579 125.546 139.838 123.35 140.25 122.527M140.662 131.687L146.425 126.54M144.984 137.553C147.763 135.975 153.218 132.304 152.807 130.246M11.8028 157.52C11.6655 158.721 11.5352 161.164 12.1115 161.328C12.832 161.534 13.0378 155.873 11.8028 157.52ZM22.6096 163.49C22.1293 163.593 21.1687 164.107 21.1687 165.342C21.1687 166.577 22.2665 167.023 22.8155 167.092C23.433 167.023 24.6681 166.577 24.6681 165.342C24.6681 163.798 23.6388 163.49 22.6096 163.49ZM40.3123 159.064C39.6604 159.201 38.4391 159.723 38.7684 160.711C39.1801 161.946 40.2094 162.769 40.724 162.769C41.2386 162.769 44.0175 159.064 40.3123 159.064ZM50.8104 158.241C50.3301 158.309 49.3695 158.714 49.3695 159.784C49.3695 161.122 50.0899 161.431 50.8104 161.534C51.5308 161.637 52.663 161.328 52.663 159.784C52.663 158.549 51.4279 158.241 50.8104 158.241Z" stroke="#096DBC" stroke-width="0.909353" stroke-linecap="round"/>
</svg>
