<svg width="27" height="14" viewBox="0 0 27 14" fill="none" xmlns="http://www.w3.org/2000/svg">
<path d="M12 13.3333H6.66667C4.82222 13.3333 3.25 12.6833 1.95 11.3833C0.65 10.0833 0 8.51111 0 6.66667C0 4.82222 0.65 3.25 1.95 1.95C3.25 0.65 4.82222 0 6.66667 0H12V2.66667H6.66667C5.55556 2.66667 4.61111 3.05556 3.83333 3.83333C3.05556 4.61111 2.66667 5.55556 2.66667 6.66667C2.66667 7.77778 3.05556 8.72222 3.83333 9.5C4.61111 10.2778 5.55556 10.6667 6.66667 10.6667H12V13.3333ZM8 8V5.33333H18.6667V8H8ZM14.6667 13.3333V10.6667H20C21.1111 10.6667 22.0556 10.2778 22.8333 9.5C23.6111 8.72222 24 7.77778 24 6.66667C24 5.55556 23.6111 4.61111 22.8333 3.83333C22.0556 3.05556 21.1111 2.66667 20 2.66667H14.6667V0H20C21.8444 0 23.4167 0.65 24.7167 1.95C26.0167 3.25 26.6667 4.82222 26.6667 6.66667C26.6667 8.51111 26.0167 10.0833 24.7167 11.3833C23.4167 12.6833 21.8444 13.3333 20 13.3333H14.6667Z" fill="#666262"/>
</svg>
