<svg width="194" height="201" viewBox="0 0 194 201" fill="none" xmlns="http://www.w3.org/2000/svg">
<path d="M46.28 78.7842C46.1771 79.4361 46.1153 80.8633 46.6917 81.3573C47.4121 81.9748 49.0589 80.7398 49.0589 79.2988C49.0589 77.8579 46.4858 77.5492 46.28 78.6813M44.7361 109.558C43.8785 109.558 42.1631 109.929 42.1631 111.411C42.3346 111.994 43.1306 112.975 44.942 112.234C47.2063 111.308 45.5595 109.464 44.7361 109.558ZM48.5443 106.676C47.961 106.951 46.9593 107.767 47.618 108.838C48.4414 110.176 49.4706 110.176 50.0881 109.558C50.7056 108.941 49.4706 106.265 48.5443 106.676ZM48.4414 127.467C47.961 127.878 47.1445 128.928 47.7209 129.834C48.4414 130.966 50.4998 130.554 50.6027 129.01C50.7056 127.467 49.1618 126.849 48.4414 127.467ZM44.1186 129.937C43.5354 130.005 42.3895 130.472 42.4718 131.789C42.5748 133.436 43.604 133.436 44.5303 133.23C45.2713 133.066 45.6624 132.132 45.7654 131.686C45.6968 131.103 45.2713 129.937 44.1186 129.937ZM50.9115 133.23C50.4655 133.265 49.5735 133.601 49.5735 134.671C49.5735 136.009 50.6027 136.935 51.0144 136.935C51.4261 136.935 52.4553 136.318 52.4553 135.083C52.4553 133.848 51.6319 133.127 50.9115 133.23ZM40.4134 95.3547C40.036 95.2861 39.2812 95.4165 39.2812 96.4869C39.2812 97.8249 40.4134 98.6483 40.928 98.6483C41.4426 98.6483 42.0602 97.5161 42.0602 96.7957C42.0602 96.0752 41.2368 95.4577 40.4134 95.3547ZM44.3245 91.032C43.8098 91.0663 42.7806 91.3614 42.7806 92.2671C42.7806 93.3992 43.2952 93.9138 44.4274 93.9138C45.5595 93.9138 45.7654 93.0905 45.7654 92.4729C45.7654 91.8554 45.4566 91.032 44.3245 91.032ZM96.4032 164.107C95.8886 164.038 94.8594 164.21 94.8594 165.445C94.8594 166.989 95.7857 166.68 96.4032 166.474C97.0208 166.268 98.05 166.165 97.9471 165.136C97.8441 164.107 96.9178 164.091 96.4032 164.107Z" stroke="#F89999" stroke-width="0.909353" stroke-linecap="round"/>
<path d="M40.927 75.1825C40.1379 76.3833 39.1155 79.073 41.3387 80.2257C44.1176 81.6666 43.3971 74.7708 40.927 75.1825Z" fill="#F89999"/>
<path d="M40.0007 84.3426C40.0007 82.4488 41.1671 81.9068 41.7504 81.8725C45.0439 83.9309 43.2599 85.6806 41.9562 86.2981C41.3044 86.4354 40.0007 86.2364 40.0007 84.3426Z" fill="#F89999"/>
<path d="M46.6907 87.3274C46.3613 86.0923 47.9257 85.0974 48.7491 84.7543C50.7252 84.5896 51.0134 86.2638 50.9105 87.1215C50.7389 87.9106 50.1489 89.4887 49.1608 89.4887C47.9257 89.4887 47.1023 88.8712 46.6907 87.3274Z" fill="#F89999"/>
<path d="M45.0439 99.0605C44.9616 98.1548 46.6563 97.3795 47.514 97.105C49.4696 97.105 49.1608 100.399 47.514 100.501C45.8673 100.604 45.1468 100.193 45.0439 99.0605Z" fill="#F89999"/>
<path d="M49.3666 92.8852C49.3666 91.7324 50.3959 91.3756 50.9105 91.3413C51.4937 91.3413 52.6396 91.6501 52.5572 92.8852C52.4749 94.1202 51.4251 94.429 50.9105 94.429C50.3959 94.3947 49.3666 94.0379 49.3666 92.8852Z" fill="#F89999"/>
<path d="M53.1748 86.7098C53.1748 85.3924 53.8609 84.8572 54.204 84.7543C56.6741 84.2397 55.3361 87.842 54.9245 87.842C54.5128 87.842 53.1748 88.3566 53.1748 86.7098Z" fill="#F89999"/>
<path d="M52.866 81.2549C52.7837 79.6082 53.7237 78.922 54.204 78.7848C57.4975 79.2994 56.2624 82.7988 55.9537 82.9017C55.6449 83.0046 52.9689 83.3134 52.866 81.2549Z" fill="#F89999"/>
<path d="M55.4391 76.0059C55.3567 74.4415 56.5026 73.7759 57.0858 73.6387C57.8749 73.6387 59.453 74.0298 59.453 75.5942C59.453 77.1586 58.4924 77.687 58.0121 77.7556C57.1887 77.8242 55.5214 77.5703 55.4391 76.0059Z" fill="#F89999"/>
<path d="M40.8241 105.236C40.7417 103.589 41.9562 103.04 42.5738 102.972C43.603 102.766 44.8381 103.589 44.7351 105.03C44.6322 106.471 43.603 107.088 43.1913 107.088C42.7796 107.088 40.927 107.294 40.8241 105.236Z" fill="#F89999"/>
<path d="M41.2358 118.513C41.2358 117.442 42.1278 117.106 42.5738 117.072C45.5585 117.587 43.7059 120.057 42.9854 120.057C42.265 120.057 41.2358 119.851 41.2358 118.513Z" fill="#F89999"/>
<path d="M43.5001 124.688C43.5001 123.288 44.7351 122.87 45.3527 122.836C48.4403 123.041 46.7936 126.232 45.9702 126.438C45.1468 126.644 43.5001 126.438 43.5001 124.688Z" fill="#F89999"/>
<path d="M38.7656 122.939C38.7656 121.868 39.9321 121.257 40.5153 121.086C43.2942 121.292 41.8533 124.277 41.0299 124.277C40.2065 124.277 38.7656 124.277 38.7656 122.939Z" fill="#F89999"/>
<path d="M47.8228 118.513C47.9051 116.948 48.6805 116.9 49.0579 117.072C49.6068 116.969 50.787 117.072 51.1163 118.307C51.4457 119.542 50.5674 119.988 50.0871 120.057C49.298 120.194 47.7405 120.077 47.8228 118.513Z" fill="#F89999"/>
<path d="M87.8596 164.519C87.7773 163.202 88.9918 162.735 89.6093 162.667C91.0914 162.584 91.3247 163.867 91.2561 164.519C91.0502 165.274 90.4327 166.784 89.6093 166.784C88.5801 166.784 87.9626 166.166 87.8596 164.519Z" fill="#F89999"/>
<path d="M100.931 165.857C100.931 164.704 101.96 164.416 102.475 164.416C103.627 164.416 103.984 165.514 104.018 166.063C104.087 166.475 103.957 167.36 102.886 167.607C101.548 167.916 100.931 167.298 100.931 165.857Z" fill="#F89999"/>
<path d="M104.945 170.592C105.274 169.604 105.974 169.219 106.283 169.151C107.621 168.636 108.238 171.415 106.9 172.135C105.562 172.856 104.533 171.827 104.945 170.592Z" fill="#F89999"/>
<path d="M105.871 166.372C105.871 165.548 106.832 165.548 107.312 165.651C108.341 165.857 109.37 168.019 107.724 168.019C106.077 168.019 105.871 167.401 105.871 166.372Z" fill="#F89999"/>
<path d="M66.3488 73.7417C61.6143 80.2944 52.1866 96.4464 52.3513 108.632C52.5029 119.849 58.2911 139.883 58.3326 155.256M56.4684 189.118C48.2346 187.78 49.6754 185.413 48.1316 182.942C48.0517 182.815 47.9834 182.676 47.9258 182.527M56.4684 189.118C56.6742 186.064 58.321 179.999 63.2613 180.164M56.4684 189.118C64.4527 190.415 77.8567 190.067 80.257 174.091M89.6094 112.338C81.6647 127.31 81.4311 143.587 81.1232 158.138M47.7225 181.707C47.4121 179.448 48.6006 175.999 49.3666 174.297C49.8607 171.25 53.758 169.734 55.6449 169.357C55.9603 168.769 56.2437 168.151 56.4974 167.504M47.7225 181.707C49.7801 179.443 54.6981 175.182 57.9093 176.252M47.7225 181.707C47.7632 182.003 47.8295 182.279 47.9258 182.527M47.9258 182.527C46.1438 182.119 43.6789 180.896 43.9624 178.723M46.0732 175.429C44.6988 176.705 44.0828 177.8 43.9624 178.723M43.9624 178.723C43.1262 177.342 42.5059 174.633 44.9412 172.678M47.9258 171.209C46.6234 171.6 45.6521 172.107 44.9412 172.678M44.9412 172.678V168.533M56.4974 167.504C51.2044 167.333 40.0009 167.833 37.5307 171.209C34.4431 175.429 -4.04995 178.208 0.890328 148.978C2.33125 144.381 7.51855 135.125 16.7404 134.878C28.2677 134.569 29.3999 144.347 28.3706 148.155C27.3414 151.963 12.7264 145.479 13.9615 154.433C14.9496 161.596 23.9793 161.054 28.3706 159.888C35.7811 157.212 44.9207 152.457 58.3326 155.256M56.4974 167.504C57.8369 164.089 58.3451 159.884 58.3326 155.256M80.257 174.091C80.332 173.592 80.3963 173.077 80.4493 172.547C80.9003 168.037 81.0163 163.192 81.1232 158.138M80.257 174.091C87.1827 175.361 101.446 178.332 103.092 180.061C104.65 181.696 116.161 184.45 130.676 185.427M145.394 185.721C140.331 185.872 135.348 185.741 130.676 185.427M81.1232 158.138C88.0038 158.039 103.532 158.73 110.081 164.622M144.879 180.678C126.456 179.134 115.649 170.592 110.812 165.343C110.583 165.094 110.339 164.854 110.081 164.622M110.081 164.622C106.551 159.888 101.981 147.331 111.944 134.981C124.397 119.542 144.056 136.936 140.453 143.626M72.7302 67.0518C75.6121 69.1445 83.2695 73.2683 90.8446 73.0213C100.313 72.7125 112.767 82.5931 121.207 96.4876C123.945 100.996 127.865 105.537 132.499 109.97M167.625 189.015C174.212 189.838 179.873 189.118 183.269 179.031C185.377 172.77 185.027 161.313 180.346 151.036M132.499 109.97C142.144 119.199 154.882 127.959 166.493 134.981C173.011 138.923 177.486 144.759 180.346 151.036M132.499 109.97C133.469 106.54 137.468 100.954 145.702 106.059C155.995 112.441 155.274 115.734 164.228 121.395C173.183 127.056 187.406 138.583 180.346 151.036M130.676 185.427C129.488 187.963 128.243 192.955 132.322 193.408M132.837 193.441C132.767 193.439 132.698 193.437 132.631 193.433M132.322 193.408C132.422 193.42 132.525 193.428 132.631 193.433M132.322 193.408C132.26 194.783 132.933 197.166 135.925 196.756M136.954 196.528C136.813 196.57 136.675 196.607 136.542 196.639M132.631 193.433C133.66 192.372 136.192 190.188 138.086 189.941M135.925 196.756C136.165 195.548 137.448 192.802 140.659 191.485M135.925 196.756C136.12 196.73 136.326 196.691 136.542 196.639M136.542 196.639C137.16 198.009 139.959 200.686 146.217 200.439C154.039 200.131 161.141 200.131 161.346 193.132M161.346 193.132C168.757 191.073 168.036 186.956 172.256 178.928C175.632 172.506 170.164 170.969 167.007 171.003M161.346 193.132C160.626 193.132 152.392 194.058 151.878 192.205C151.659 191.419 151.07 190.633 150.409 189.941M151.466 177.076C149.064 177.419 144.323 179.011 144.57 182.634C144.642 183.684 144.83 184.496 145.085 185.132M145.085 185.132C146.114 183.544 148.913 180.431 151.878 180.678M145.085 185.132C145.651 186.541 146.548 187.084 147.246 187.431M147.246 187.431C147.591 187.602 147.887 187.726 148.069 187.883C148.484 188.238 149.513 189.003 150.409 189.941M147.246 187.431C148.584 185.832 151.548 182.798 152.701 183.457M150.409 189.941C151.448 188.239 154.307 185.095 157.435 186.133" stroke="#F45F5F" stroke-width="0.909353" stroke-linecap="round"/>
<path d="M55.0306 65.3017C55.0011 65.6264 54.9871 66.0191 55.0023 66.4338M59.4563 66.4338H55.0023M59.4563 66.4338C60.314 66.1937 62.0706 65.8574 62.2352 66.4338M59.4563 66.4338C59.4354 67.0415 59.225 68.0356 58.633 68.755M55.0023 66.4338C55.0574 67.947 55.4998 69.7537 56.9861 69.6244C57.7233 69.5603 58.2556 69.2134 58.633 68.755M62.2352 66.4338C62.3426 66.8094 62.31 67.6606 62.1084 68.3893M62.2352 66.4338C64.0878 64.787 66.2492 65.3017 66.3521 65.7133C66.3896 65.8631 66.3045 66.2308 66.1463 66.6479M58.633 68.755C59.1133 69.0448 60.2797 69.6244 61.1031 69.6244C61.5957 69.6244 61.9233 69.0584 62.1084 68.3893M62.1084 68.3893C62.8025 68.4579 64.3349 68.554 64.9112 68.3893C65.3696 68.2584 65.8697 67.3774 66.1463 66.6479M66.1463 66.6479C67.0726 66.8853 68.9252 67.566 68.9252 68.3893C68.9252 69.2127 69.0624 65.6447 69.131 63.7578" stroke="#F89999" stroke-width="0.909353" stroke-linecap="round"/>
<path d="M56.6758 63.3464C58.0824 63.2434 61.2867 63.0993 62.8511 63.3464" stroke="#FDDFDF" stroke-width="0.909353" stroke-linecap="round"/>
<path d="M46.908 67.5656C46.9626 66.2197 46.8109 64.3118 46.6921 63.2428L49.6769 64.8896C49.7173 65.9615 49.6958 67.744 49.4689 69.2124L46.908 67.5656Z" fill="#F89999"/>
<path d="M43.9132 61.4932C44.0848 63.0713 44.1602 66.3099 43.0898 66.6393M46.6921 68.9036C46.8188 68.6503 46.8837 68.1634 46.908 67.5656M48.6477 71.4766C49.0532 71.1049 49.3108 70.2348 49.4689 69.2124M46.908 67.5656C46.9626 66.2197 46.8109 64.3118 46.6921 63.2428L49.6769 64.8896C49.7173 65.9615 49.6958 67.744 49.4689 69.2124M46.908 67.5656L49.4689 69.2124M51.7353 65.3013C51.7353 66.8108 52.0853 70.0151 53.485 70.7562" stroke="#F89999" stroke-width="0.909353" stroke-linecap="round"/>
<path d="M63.8789 13.5318C65.3541 12.9143 68.4487 12.7496 69.025 17.0312" stroke="#FDDFDF" stroke-width="0.909353" stroke-linecap="round"/>
<path d="M32.4883 48.0107C36.3307 53.843 45.5183 65.1782 51.9406 65.0959" stroke="#F67F7F" stroke-width="0.909353" stroke-linecap="round"/>
<path d="M77.1701 38.2334C76.3467 36.518 75.8733 33.0255 80.5665 32.7785C81.5615 34.4939 82.275 37.9864 77.1701 38.2334Z" fill="#FDDFDF"/>
<path d="M68.3224 50.79C67.4991 49.0747 67.0256 45.5822 71.7189 45.3351C72.7138 47.0505 73.4274 50.543 68.3224 50.79Z" fill="#FDDFDF"/>
<path d="M49.7951 51.3037C48.9717 53.0191 48.4983 56.5116 53.1915 56.7586C54.1865 55.0432 54.9 51.5507 49.7951 51.3037Z" fill="#FDDFDF"/>
<path d="M37.2404 41.2178C36.417 42.9331 35.9436 46.4257 40.6369 46.6727C41.6318 44.9573 42.3454 41.4648 37.2404 41.2178Z" fill="#FDDFDF"/>
<path d="M41.238 53.7747C36.9564 51.0576 37.6014 45.5066 38.4591 43.0708C39.7627 42.0416 43.5846 40.7036 48.4425 43.5854C53.3004 46.4672 53.6229 52.5396 53.1769 55.2156C50.9813 55.8675 45.5196 56.4919 41.238 53.7747Z" fill="#F67F7F"/>
<path d="M68.6153 50.1723C74.4819 49.246 87.9647 40.6006 78.7017 35.1457C66.4625 27.9383 68.6153 48.8343 68.6153 50.1723Z" fill="#F67F7F"/>
<path d="M44.6323 38.0278C44.5637 38.5767 44.694 39.6333 45.7644 39.4687C47.1024 39.2628 46.0732 38.0278 44.6323 38.0278Z" fill="#C34C4C"/>
<path d="M49.3667 38.0278C49.5725 38.6796 50.1283 40.0245 50.7047 40.1891C51.4251 40.395 51.3222 38.0278 49.3667 38.0278Z" fill="#C34C4C"/>
<path d="M50.1901 43.2768C49.7784 43.1121 50.3616 42.4534 50.7047 42.1447C51.2193 42.1447 51.4251 43.2768 51.2193 43.4826C51.0135 43.6885 50.7047 43.4826 50.1901 43.2768Z" fill="#C34C4C"/>
<path d="M55.2333 41.3213C55.2333 40.9919 55.5077 40.5665 55.645 40.395C57.1271 41.136 56.3997 41.733 55.8508 41.9388C55.645 41.8702 55.2333 41.6506 55.2333 41.3213Z" fill="#C34C4C"/>
<path d="M55.2333 45.4382C55.2333 45.0265 55.645 44.6491 55.8508 44.5119C57.7034 45.7469 56.2625 46.4674 56.0567 46.4674C55.8508 46.4674 55.2333 45.9528 55.2333 45.4382Z" fill="#C34C4C"/>
<path d="M58.321 52.1281C58.1563 51.8811 58.7326 51.4077 59.0414 51.2018C60.0706 51.0989 59.6589 53.1574 59.4531 53.1574C59.2473 53.1574 58.5268 52.4369 58.321 52.1281Z" fill="#C34C4C"/>
<path d="M61.5116 52.2311C61.5116 51.8194 61.9232 51.7851 62.1291 51.8194C63.57 52.5398 62.6437 53.672 62.4379 53.672C62.232 53.672 61.5116 52.7457 61.5116 52.2311Z" fill="#C34C4C"/>
<path d="M59.8648 47.7025C59.8648 47.0438 60.2079 46.6046 60.3794 46.4674C62.2732 47.4555 61.1685 48.7317 60.3794 49.2463C60.2079 49.0062 59.8648 48.3612 59.8648 47.7025Z" fill="#C34C4C"/>
<path d="M59.8648 39.8804C59.4188 40.4293 58.7944 41.98 59.8648 43.7914C60.6882 43.2425 61.8409 41.6918 59.8648 39.8804Z" fill="#C34C4C"/>
<path d="M62.6437 41.9388C62.6437 41.0331 63.1926 40.5322 63.4671 40.395C64.8668 41.383 64.0503 42.5907 63.4671 43.071C63.1926 43.071 62.6437 42.8445 62.6437 41.9388Z" fill="#C34C4C"/>
<path d="M63.4671 35.5576C63.1926 35.9007 62.726 36.7721 63.0554 37.5131C63.4671 38.4394 64.4963 36.381 63.4671 35.5576Z" fill="#C34C4C"/>
<path d="M65.1138 37.8219C65.2785 36.5045 66.2117 36.1752 66.6577 36.1752C68.0574 37.9042 66.4175 39.2285 65.4226 39.6745C65.2511 39.6059 64.9492 39.1393 65.1138 37.8219Z" fill="#C34C4C"/>
<path d="M62.6437 48.1142C62.6437 47.5378 63.1926 47.3937 63.4671 47.3937C63.9817 47.4966 64.1875 49.2463 63.6729 49.4522C63.1583 49.658 62.6437 48.8346 62.6437 48.1142Z" fill="#C34C4C"/>
<path d="M46.4849 58.2006C46.7936 58.7495 47.617 59.8473 48.4404 59.8473C49.4696 59.8473 48.4404 57.7889 46.4849 58.2006Z" fill="#C34C4C"/>
<path d="M48.4404 61.2882C48.2689 61.6313 48.1316 62.4204 48.955 62.8321C49.9842 63.3467 50.8076 62.1116 48.4404 61.2882Z" fill="#C34C4C"/>
<path d="M51.2193 61.3912C51.185 62.0087 51.4251 63.2643 52.6602 63.3467C54.2041 63.4496 53.0719 60.7736 51.2193 61.3912Z" fill="#C34C4C"/>
<path d="M65.9372 57.1713C66.1842 56.2656 67.2752 55.902 67.7898 55.8333C68.6955 55.998 68.03 57.137 67.584 57.6859C66.9321 57.8918 65.6902 58.0771 65.9372 57.1713Z" fill="#C34C4C"/>
<path d="M66.6577 59.5386C66.74 59.0445 67.4467 58.7152 67.7898 58.6123C69.6836 58.7769 68.6475 59.7787 67.8927 60.259C67.4467 60.2247 66.5753 60.0326 66.6577 59.5386Z" fill="#C34C4C"/>
<path d="M70.6716 54.1866C70.1913 54.3924 69.2925 54.9688 69.5395 55.6275C69.8483 56.4509 72.9359 54.8041 70.6716 54.1866Z" fill="#C34C4C"/>
<path d="M70.9804 59.0239C70.3972 59.1955 69.2513 59.3945 69.3337 58.8181C69.4077 58.3 69.9307 57.8541 70.26 57.6446C70.4315 57.4868 70.8775 57.2125 71.2892 57.3772C71.7009 57.5419 71.2549 58.5436 70.9804 59.0239Z" fill="#C34C4C"/>
<circle cx="75.2026" cy="39.7769" r="1.89559" fill="#F89999" stroke="white" stroke-width="0.909353"/>
<circle cx="48.0308" cy="49.8638" r="1.89559" fill="#F89999" stroke="white" stroke-width="0.909353"/>
<path d="M43.1929 59.9501C42.987 59.8666 45.2289 65.6314 47.2052 65.7137C49.6756 65.8167 50.2952 62.832 43.1929 59.9501Z" fill="#FDDFDF"/>
<path d="M25.9006 42.9678C25.0772 44.6831 24.6037 48.1757 29.297 48.4227C30.2919 46.7073 31.0055 43.2148 25.9006 42.9678Z" fill="#FDDFDF"/>
<path d="M51.0152 25.5733C50.6035 24.3382 51.5984 23.4805 52.1473 23.2061C55.5437 23.9265 53.8971 26.7054 53.3825 26.7054C52.8679 26.7054 51.5298 27.1171 51.0152 25.5733Z" stroke="#F89999" stroke-width="0.909353" stroke-linecap="round"/>
<path d="M55.2362 34.7335C54.8245 33.5807 55.545 33.0181 55.9567 32.8809C58.4267 34.1159 57.3977 35.6598 57.1918 35.8656C56.986 36.0715 55.7508 36.1744 55.2362 34.7335Z" stroke="#F89999" stroke-width="0.909353" stroke-linecap="round"/>
<path d="M49.2641 16.8254C48.9348 15.0963 50.0189 14.6641 50.6021 14.6641C53.2369 15.8168 52.0431 17.7517 51.1168 18.5751C50.6365 18.7123 49.5935 18.5545 49.2641 16.8254Z" stroke="#F89999" stroke-width="0.909353" stroke-linecap="round"/>
<path d="M31.0469 49.9658C29.7089 52.6418 27.2181 58.0555 27.9592 58.3025C28.7002 58.5496 32.5906 56.2784 34.4432 55.1119" stroke="#F89999" stroke-width="0.909353" stroke-linecap="round"/>
<path d="M12.418 10.0328C12.418 7.25385 16.2261 4.06331 18.9021 8.79769" stroke="#FDDFDF" stroke-width="0.909353" stroke-linecap="round"/>
<path d="M24.665 7.25357C24.5531 7.05883 24.4269 6.85194 24.2874 6.63605M10.0501 21.1481C9.22667 14.8698 8.81498 1.98394 13.7553 0.666534C18.345 -0.557399 22.461 3.80936 24.2874 6.63605M24.2874 6.63605C27.1179 5.14754 37.6634 4.35289 56.9827 12.8574M57.8061 13.2231C57.5299 13.0993 57.2554 12.9774 56.9827 12.8574M56.9827 12.8574C62.0945 8.69084 72.4416 4.74228 72.9357 22.2803C74.0335 23.3781 76.4144 26.4795 77.1555 30.1024M76.2292 50.481C75.7146 53.2256 73.5738 59.7235 69.1275 63.758" stroke="#F45F5F" stroke-width="0.909353" stroke-linecap="round"/>
<path d="M18.3868 11.8848C10.6676 11.8848 -1.57999 33.2926 16.431 56.7589" stroke="#F45F5F" stroke-width="0.909353" stroke-linecap="round"/>
<path d="M12.42 50.79C9.33247 73.9476 16.4134 126.664 40.2091 138.686" stroke="#F45F5F" stroke-width="0.909353" stroke-linecap="round"/>
<path d="M54.8219 50.069C55.3708 52.5391 56.5098 57.8087 56.6745 59.1261C56.8803 60.7729 59.6592 61.2875 60.7914 61.1846C61.9235 61.0817 64.0849 60.9787 65.0112 57.7881C65.8225 54.9936 66.318 47.9356 67.3275 44.8432C66.0911 47.7582 64.1189 53.1551 63.4674 57.7881H58.0125C57.7037 55.0435 54.616 49.1427 54.8219 50.069Z" fill="#F89999"/>
<path d="M10.3594 33.1897C10.9083 29.9648 14.0234 23.7208 22.0925 24.5442M13.3441 44.5112C13.6529 42.487 14.7439 38.2741 16.6376 37.6154M19.9312 48.1134C19.8969 44.1681 21.3927 36.545 27.6504 37.6154M26.827 28.3523C29.3314 24.853 36.584 19.0276 45.5589 23.7208M28.165 15.0753C31.3899 13.0855 39.4864 10.2997 46.0735 15.0753M35.2666 36.0715C37.4966 34.0817 44.0768 30.946 52.5576 34.3218M60.3797 33.0867C62.3352 30.8911 67.5019 26.8703 72.5246 28.3523M56.5716 24.5442C57.7723 22.1427 61.7589 17.7925 68.0989 19.6039M56.5716 17.4425C58.1497 16.6191 61.6971 15.3429 63.2615 16.825M67.3275 44.8432C66.318 47.9356 65.8225 54.9936 65.0112 57.7881C64.0849 60.9787 61.9235 61.0817 60.7914 61.1846C59.6592 61.2875 56.8803 60.7729 56.6745 59.1261C56.5098 57.8087 55.3708 52.5391 54.8219 50.069C54.616 49.1426 57.7037 55.0435 58.0125 57.7881H63.4674C64.1189 53.1551 66.0911 47.7582 67.3275 44.8432ZM67.3275 44.8432C67.4974 44.4427 67.6534 44.0891 67.7901 43.7907C67.9788 43.379 67.4706 44.4049 67.3275 44.8432Z" stroke="#F89999" stroke-width="0.909353" stroke-linecap="round"/>
<path d="M39.2812 61.1846C39.7959 64.3066 41.8955 70.7564 46.1771 71.5797" stroke="#F89999" stroke-width="0.909353" stroke-linecap="round"/>
<path d="M11.8028 157.52C11.6655 158.721 11.5352 161.163 12.1115 161.328C12.832 161.534 13.0378 155.873 11.8028 157.52Z" fill="#F89999"/>
<path d="M21.1687 165.342C21.1687 164.107 22.1293 163.592 22.6096 163.489C23.6388 163.489 24.6681 163.798 24.6681 165.342C24.6681 166.577 23.433 167.023 22.8155 167.092C22.2665 167.023 21.1687 166.577 21.1687 165.342Z" fill="#F89999"/>
<path d="M38.7684 160.711C38.4391 159.722 39.6604 159.201 40.3123 159.064C44.0175 159.064 41.2386 162.769 40.724 162.769C40.2094 162.769 39.1801 161.946 38.7684 160.711Z" fill="#F89999"/>
<path d="M49.3695 159.784C49.3695 158.714 50.3301 158.309 50.8104 158.24C51.4279 158.24 52.663 158.549 52.663 159.784C52.663 161.328 51.5308 161.637 50.8104 161.534C50.0899 161.431 49.3695 161.122 49.3695 159.784Z" fill="#F89999"/>
<path d="M14.8904 65.4043C15.8167 66.4678 18.1839 68.7802 19.8307 68.6978C22.6096 68.5589 33.1077 76.5199 33.2106 82.1807M15.405 77.1375C18.6643 76.6915 26.85 79.2371 33.5194 92.9875M17.5664 87.6356C20.1052 88.5275 26.356 92.5964 31.0493 101.736M20.5512 99.1629C23.433 100.707 30.0612 105.647 33.5194 113.057M25.0798 114.292C27.2754 115.287 31.9138 118.286 32.9019 122.32M23.0213 138.582C22.6782 139.474 22.0127 141.752 22.095 143.728M14.4787 138.582C15.5423 138.822 17.6487 140.126 17.5664 143.42M7.37708 142.905C8.818 142.699 11.8439 142.946 12.4203 145.581M3.67188 152.58L8.20046 150.521M5.00987 159.681L8.20046 155.873M16.3313 162.46C15.0963 163.318 12.7085 165.815 13.0378 168.944M28.9908 165.342C28.0302 166.165 26.109 168.903 26.109 173.267M35.9895 162.46C35.5435 163.764 34.7339 166.989 35.0632 169.459M46.8993 159.784C46.2475 161.054 45.0055 163.942 45.2526 165.342M50.1928 146.404V152.065M42.7824 139.714C45.2183 141.67 51.3662 144.449 54.001 144.449M71.8066 71.4767C71.8409 76.8287 71.786 87.9237 71.2919 89.4882C70.7979 91.0526 74.3796 96.727 76.2322 99.3687M80.7608 75.079C80.7265 79.5733 81.6254 89.5705 85.4953 93.6051C87.6671 95.8694 89.4406 102.559 88.9946 104.515M93.1115 76.7258C93.3174 82.3522 95.7615 93.4315 98.2576 97.5161C99.3898 99.3687 98.5321 110.759 96.405 115.425M107.624 83.2099C108.55 85.7486 109.847 92.7199 107.624 100.295C105.4 107.87 106.08 116.42 106.697 119.747M86.7303 168.224C86.3186 168.979 85.4953 170.817 85.4953 172.135M92.8027 169.15C92.5969 170.008 92.1852 172.155 92.1852 173.885M100.213 169.665C99.3555 170.522 97.6607 172.876 97.743 175.428M108.756 173.576L106.389 178.207M115.652 176.561L116.166 181.501M124.915 179.031V182.221M119.666 169.665C122.753 169.63 129.855 168.368 133.56 163.592M133.56 174.605C136.716 172.924 143.132 168.203 143.544 162.769C143.715 160.505 146.185 157.28 147.249 157.932M144.161 175.943C146.528 172.409 151.942 164.827 154.659 162.769M60.4851 165.342C63.0238 167.298 68.4719 172.053 69.954 175.428M61.3085 155.667C62.8523 157.726 64.8515 158.59 67.8955 164.21C69.2335 166.68 71.8752 169.836 73.0416 169.562M60.0734 147.434C63.4012 149.355 70.7362 154.617 73.4533 160.299M59.8676 137.553C61.8574 137.724 66.4546 139.2 68.9247 143.728C71.3949 148.257 74.4139 148.566 75.6147 148.154M57.8091 127.055C60.4851 127.741 66.6604 130.348 69.954 135.289C72.1496 138.582 75.5118 140.16 76.2322 139.508M56.574 115.425C59.6617 116.557 67.6691 120.982 74.9972 129.628M55.9565 100.295C57.0886 102.799 60.0734 107.397 66.4546 110.073C69.0918 111.179 72.3898 116.111 71.8066 117.998M60.7939 87.6356C60.4851 90.9291 61.9235 97.2726 68.616 100.295C71.8066 101.736 75.1001 107.054 73.9679 109.043M100.728 117.174C100.728 119.85 100.007 126.211 97.1255 130.245C94.2437 134.28 94.4838 135.7 94.9641 135.906M90.5385 125.82C89.8866 128.256 88.5829 133.683 88.5829 135.906M107.624 122.526C107.418 124.756 106.78 129.71 105.874 131.686C104.742 134.157 101.139 134.259 101.242 137.553M111.329 127.055C110.917 129.079 109.25 133.765 105.874 136.318M84.8777 145.478C87.8282 145.821 94.2642 146.301 96.405 145.478C98.5458 144.655 100.179 146.096 100.728 146.919M112.667 138.479C109.716 145.855 109.435 160.34 131.913 159.27M129.134 133.848C125.017 141.704 121.477 156.635 140.25 153.506M147.249 148.669C147.901 146.953 150.336 143.214 154.865 141.979C159.394 140.744 161.624 138.445 162.173 137.45M156.615 154.844C157.987 152.923 161.946 149.121 166.804 149.286C171.662 149.451 172.396 147.982 172.156 147.228M165.672 163.592C166.838 161.637 171.25 157.808 179.566 158.137M172.156 168.738C174.489 167.503 179.649 165.301 181.625 166.371M154.659 175.223V178.207M158.159 171.517C157.987 173.13 157.891 176.54 158.879 177.281M163.51 170.282V175.943M175.758 173.782C176.685 174.056 178.64 174.873 179.052 175.943M174.317 182.221L176.067 184.589M174.214 140.332C174.317 138.685 174.75 135.33 175.655 135.083M165.672 131.583C165.912 130.211 166.681 127.343 167.833 126.849M156.615 125.202C156.821 123.864 157.582 120.962 158.982 120.056M147.66 119.644C147.729 118.204 148.36 114.91 150.336 113.263M113.593 119.027C113.765 115.905 114.663 108.879 116.887 105.75C119.11 102.621 118.842 98.957 118.43 97.5161M118.739 125.511C118.774 123.418 116.21 122.526 123.988 115.425C126.355 113.263 127.282 108.117 126.355 106.367M128.105 123.967C130.026 121.806 133.889 117.277 133.972 116.454M135.001 126.54C136.579 125.545 139.838 123.35 140.25 122.526M140.662 131.686L146.425 126.54M144.984 137.553C147.763 135.975 153.218 132.304 152.807 130.245M11.8028 157.52C11.6655 158.721 11.5352 161.163 12.1115 161.328C12.832 161.534 13.0378 155.873 11.8028 157.52ZM22.6096 163.489C22.1293 163.592 21.1687 164.107 21.1687 165.342C21.1687 166.577 22.2665 167.023 22.8155 167.092C23.433 167.023 24.6681 166.577 24.6681 165.342C24.6681 163.798 23.6388 163.489 22.6096 163.489ZM40.3123 159.064C39.6604 159.201 38.4391 159.722 38.7684 160.711C39.1801 161.946 40.2094 162.769 40.724 162.769C41.2386 162.769 44.0175 159.064 40.3123 159.064ZM50.8104 158.24C50.3301 158.309 49.3695 158.714 49.3695 159.784C49.3695 161.122 50.0899 161.431 50.8104 161.534C51.5308 161.637 52.663 161.328 52.663 159.784C52.663 158.549 51.4279 158.24 50.8104 158.24Z" stroke="#F89999" stroke-width="0.909353" stroke-linecap="round"/>
</svg>
