<svg width="45" height="42" viewBox="0 0 45 42" fill="none" xmlns="http://www.w3.org/2000/svg">
<path d="M31.512 6.72C35.552 11.12 35.552 17.22 31.512 21.26L28.152 17.88C29.832 15.52 29.832 12.46 28.152 10.1L31.512 6.72ZM38.132 0C46.012 8.1 45.932 20.22 38.132 28L34.872 24.74C40.412 18.38 40.412 9.3 34.872 3.26L38.132 0ZM16.012 6C20.412 6 24.012 9.58 24.012 14C24.012 18.42 20.412 22 16.012 22C11.612 22 8.012 18.42 8.012 14C8.012 9.58 11.592 6 16.012 6ZM24.012 27.08C24.012 29.2 23.432 34.14 19.612 39.66L18.012 30L19.872 26.24C18.632 26.1 17.332 26 16.012 26C14.692 26 13.352 26.1 12.112 26.24L14.012 30L12.372 39.66C8.552 34.14 8.012 29.2 8.012 27.08C3.212 28.48 0 31 0 34V42H32.012V34C32.012 31 28.792 28.48 24.012 27.08Z" fill="#F45F5F"/>
</svg>
