<svg width="36" height="40" viewBox="0 0 36 40" fill="none" xmlns="http://www.w3.org/2000/svg">
<path d="M30.6 4H27V2C27 1.46957 26.8104 0.960859 26.4728 0.585786C26.1352 0.210714 25.6774 0 25.2 0C24.7226 0 24.2648 0.210714 23.9272 0.585786C23.5896 0.960859 23.4 1.46957 23.4 2V4H12.6V2C12.6 1.46957 12.4104 0.960859 12.0728 0.585786C11.7352 0.210714 11.2774 0 10.8 0C10.3226 0 9.86477 0.210714 9.52721 0.585786C9.18964 0.960859 9 1.46957 9 2V4H5.4C3.96783 4 2.59432 4.63214 1.58162 5.75736C0.568927 6.88258 0 8.4087 0 10V34C0 35.5913 0.568927 37.1174 1.58162 38.2426C2.59432 39.3679 3.96783 40 5.4 40H30.6C32.0322 40 33.4057 39.3679 34.4184 38.2426C35.4311 37.1174 36 35.5913 36 34V10C36 8.4087 35.4311 6.88258 34.4184 5.75736C33.4057 4.63214 32.0322 4 30.6 4ZM32.4 34C32.4 34.5304 32.2104 35.0391 31.8728 35.4142C31.5352 35.7893 31.0774 36 30.6 36H5.4C4.92261 36 4.46477 35.7893 4.12721 35.4142C3.78964 35.0391 3.6 34.5304 3.6 34V20H32.4V34ZM32.4 16H3.6V10C3.6 9.46957 3.78964 8.96086 4.12721 8.58579C4.46477 8.21071 4.92261 8 5.4 8H9V10C9 10.5304 9.18964 11.0391 9.52721 11.4142C9.86477 11.7893 10.3226 12 10.8 12C11.2774 12 11.7352 11.7893 12.0728 11.4142C12.4104 11.0391 12.6 10.5304 12.6 10V8H23.4V10C23.4 10.5304 23.5896 11.0391 23.9272 11.4142C24.2648 11.7893 24.7226 12 25.2 12C25.6774 12 26.1352 11.7893 26.4728 11.4142C26.8104 11.0391 27 10.5304 27 10V8H30.6C31.0774 8 31.5352 8.21071 31.8728 8.58579C32.2104 8.96086 32.4 9.46957 32.4 10V16Z" fill="#F45F5F"/>
</svg>
