<svg width="33" height="42" viewBox="0 0 33 42" fill="none" xmlns="http://www.w3.org/2000/svg">
<path d="M7.5 24H19.5V27H7.5V24ZM7.5 16.5H25.5V19.5H7.5V16.5ZM7.5 31.5H15V34.5H7.5V31.5Z" fill="#F45F5F"/>
<path d="M30 4.5H25.5V3C25.5 2.20435 25.1839 1.44129 24.6213 0.87868C24.0587 0.31607 23.2956 0 22.5 0H10.5C9.70435 0 8.94129 0.31607 8.37868 0.87868C7.81607 1.44129 7.5 2.20435 7.5 3V4.5H3C2.20435 4.5 1.44129 4.81607 0.87868 5.37868C0.31607 5.94129 0 6.70435 0 7.5V39C0 39.7957 0.31607 40.5587 0.87868 41.1213C1.44129 41.6839 2.20435 42 3 42H30C30.7956 42 31.5587 41.6839 32.1213 41.1213C32.6839 40.5587 33 39.7957 33 39V7.5C33 6.70435 32.6839 5.94129 32.1213 5.37868C31.5587 4.81607 30.7956 4.5 30 4.5ZM10.5 3H22.5V9H10.5V3ZM30 39H3V7.5H7.5V12H25.5V7.5H30V39Z" fill="#F45F5F"/>
</svg>
